<?xml version="1.0" standalone="no"?>
<!DOCTYPE svg PUBLIC "-//W3C//DTD SVG 20010904//EN"
 "http://www.w3.org/TR/2001/REC-SVG-20010904/DTD/svg10.dtd">
<svg version="1.0" xmlns="http://www.w3.org/2000/svg"
 width="2000.000000pt" height="746.000000pt" viewBox="0 0 2000.000000 746.000000"
 preserveAspectRatio="xMidYMid meet">
<style> path { fill: #1e4356; } </style>
<g transform="translate(0.000000,746.000000) scale(0.100000,-0.100000)"
fill="#000000" stroke="none">
<path d="M3933 7382 c-39 -37 -127 -110 -195 -161 l-123 -95 100 -300 c56
-166 108 -326 117 -356 8 -30 32 -109 52 -175 50 -161 138 -484 171 -625 15
-63 40 -169 56 -235 27 -112 75 -350 130 -645 l24 -125 8 130 c11 175 0 816
-17 1045 -23 294 -47 519 -81 760 -38 270 -146 842 -160 846 -5 2 -42 -27 -82
-64z"/>
<path d="M2331 7057 c-57 -109 -132 -251 -263 -495 -45 -83 -49 -95 -36 -110
504 -587 721 -855 1052 -1297 215 -287 231 -310 423 -589 68 -99 126 -182 129
-185 3 -3 -16 53 -41 124 -26 72 -50 141 -55 155 -4 14 -17 48 -28 75 -12 28
-46 115 -77 195 -31 80 -63 159 -70 175 -8 17 -30 69 -49 116 -39 96 -140 324
-193 439 -20 41 -48 102 -63 135 -78 170 -113 241 -232 480 -162 325 -437 853
-447 860 -5 2 -27 -33 -50 -78z"/>
<path d="M5115 6903 c-33 -7 -97 -16 -142 -19 -46 -4 -83 -10 -83 -14 0 -4 9
-75 20 -156 47 -364 55 -484 55 -904 0 -322 -4 -438 -18 -565 -25 -226 -53
-431 -77 -565 -27 -158 -24 -170 17 -65 154 389 267 811 320 1185 25 181 25
681 0 915 -10 94 -22 177 -25 185 -6 14 -15 14 -67 3z"/>
<path d="M4434 6029 c13 -69 37 -422 47 -664 5 -137 7 -383 4 -545 -9 -402
-27 -637 -81 -1032 -9 -64 -14 -122 -12 -128 5 -15 128 376 162 515 115 466
130 539 185 900 26 170 48 421 61 670 9 175 8 201 -5 211 -33 25 -234 87 -318
100 l-48 6 5 -33z"/>
<path d="M3599 5997 c-58 -18 -151 -53 -206 -77 l-101 -44 35 -75 c20 -42 62
-137 95 -211 33 -74 71 -160 85 -190 67 -146 165 -392 305 -765 83 -220 206
-606 257 -805 68 -265 72 -271 66 -105 -4 124 -25 365 -40 472 -3 21 -14 115
-25 208 -47 398 -118 766 -261 1355 -63 260 -67 270 -87 270 -9 -1 -65 -16
-123 -33z"/>
<path d="M720 5215 c0 -434 1 -466 18 -472 87 -31 707 -277 922 -367 306 -127
669 -282 770 -329 30 -14 96 -43 145 -65 101 -45 309 -140 430 -197 79 -37
134 -60 125 -52 -3 2 -61 55 -130 118 -130 120 -329 295 -440 389 -36 30 -67
57 -70 60 -3 3 -48 41 -100 85 -52 43 -100 84 -106 90 -6 5 -42 35 -79 65 -38
30 -96 78 -129 105 -81 67 -281 226 -385 305 -46 36 -98 77 -115 91 -37 31
-530 401 -631 474 -38 28 -105 77 -147 108 l-78 58 0 -466z"/>
<path d="M2493 5283 c-116 -127 -135 -150 -219 -259 l-75 -99 24 -20 c13 -11
54 -45 92 -75 471 -381 892 -758 1329 -1190 268 -264 287 -281 256 -225 -18
33 -49 89 -68 125 -88 163 -341 571 -501 810 -189 281 -726 1009 -750 1018 -4
1 -44 -37 -88 -85z"/>
<path d="M1702 3918 c-55 -178 -129 -477 -120 -483 2 -1 53 -9 113 -19 61 -9
130 -21 155 -26 25 -5 108 -19 185 -30 77 -12 190 -30 250 -41 61 -10 243 -42
405 -69 162 -28 381 -66 485 -85 257 -46 618 -105 621 -102 7 7 -1099 547
-1121 547 -3 0 -42 18 -87 39 -155 73 -838 371 -850 371 -3 0 -19 -46 -36
-102z"/>
<path d="M4992 3445 c-57 -17 -126 -71 -152 -118 -15 -26 -24 -64 -29 -115
-10 -126 -5 -1222 6 -1233 6 -6 67 -8 149 -7 l139 3 3 303 2 302 329 0 c268 0
331 3 340 14 8 9 11 54 9 132 l-3 119 -335 5 c-184 3 -336 7 -337 8 -2 1 -3
64 -3 140 0 120 3 140 20 162 l19 25 350 3 351 3 0 134 0 135 -407 -1 c-311 0
-418 -4 -451 -14z"/>
<path d="M5960 2715 l0 -746 148 3 147 3 3 273 2 272 150 0 149 0 35 -30 c22
-20 41 -50 52 -83 44 -136 139 -394 152 -414 14 -22 20 -23 168 -23 127 0 154
2 154 14 0 8 -4 17 -9 21 -5 3 -30 72 -56 153 -76 240 -106 320 -141 379 -19
30 -34 59 -34 64 0 5 13 15 29 23 41 22 118 115 137 167 26 67 31 323 9 409
-27 107 -87 183 -185 236 -33 18 -64 19 -472 22 l-438 3 0 -746z m758 459 c85
-59 82 -258 -4 -334 l-35 -30 -207 2 -207 3 -3 188 -2 187 218 0 c181 0 221
-3 240 -16z"/>
<path d="M7781 3450 c-92 -20 -102 -35 -182 -291 -28 -90 -75 -240 -104 -334
-101 -321 -157 -500 -170 -545 -11 -38 -45 -146 -85 -272 -4 -14 -6 -29 -2
-32 8 -9 285 -7 298 2 5 4 22 48 37 97 15 50 41 135 60 190 l33 100 264 0 263
0 8 -25 c58 -190 102 -329 109 -347 9 -22 13 -23 160 -23 82 0 150 4 150 9 0
10 -116 391 -280 921 -28 91 -71 233 -97 315 -52 167 -70 200 -122 223 -43 18
-272 26 -340 12z m199 -392 c43 -134 120 -389 120 -395 0 -2 -77 -3 -171 -3
l-171 0 5 23 c6 29 133 444 146 480 6 15 15 27 20 27 5 0 28 -60 51 -132z"/>
<path d="M8927 3449 c-87 -20 -137 -68 -162 -152 -13 -45 -15 -144 -13 -687
l3 -635 145 0 145 0 5 598 c3 380 9 598 15 600 10 2 38 -88 100 -323 53 -201
184 -681 197 -725 16 -53 102 -139 147 -148 42 -9 218 -9 260 -1 40 8 116 75
144 128 22 41 22 42 25 699 l3 657 -151 0 -150 0 -2 -597 c-3 -515 -5 -598
-18 -598 -10 0 -23 34 -43 110 -15 61 -48 182 -72 270 -25 88 -58 212 -75 275
-51 195 -112 404 -122 425 -22 44 -74 86 -122 100 -54 16 -198 18 -259 4z"/>
<path d="M10420 3444 c-109 -29 -244 -143 -286 -243 -35 -80 -43 -179 -44
-496 0 -354 6 -399 70 -505 60 -101 137 -165 245 -205 44 -16 90 -19 378 -23
l327 -4 0 136 0 136 -288 0 c-279 0 -289 1 -332 23 -30 14 -53 36 -67 62 -22
39 -23 48 -23 356 0 345 5 388 57 450 48 56 65 59 373 59 l280 0 0 135 0 135
-317 -1 c-246 0 -330 -4 -373 -15z"/>
<path d="M11289 3423 c-1 -21 -2 -352 -3 -736 -1 -511 2 -701 10 -708 7 -5 74
-8 150 -7 l139 3 0 740 0 740 -147 3 -148 3 -1 -38z"/>
<path d="M11760 2881 c0 -638 -1 -624 63 -724 41 -65 136 -141 206 -163 48
-16 88 -19 281 -18 207 0 230 2 284 22 162 60 251 162 276 319 6 32 10 302 10
601 l0 542 -150 0 -150 0 0 -524 c0 -572 -1 -579 -58 -639 -48 -51 -71 -57
-206 -57 -69 0 -135 4 -148 9 -29 11 -77 58 -92 91 -7 17 -13 196 -16 570 l-5
545 -147 3 -148 3 0 -580z"/>
<path d="M13217 3446 c-51 -14 -107 -54 -141 -100 -21 -27 -21 -36 -21 -699
l0 -672 145 0 145 0 5 592 c4 423 8 590 16 585 13 -8 23 -50 64 -252 17 -85
49 -238 71 -340 22 -102 51 -241 65 -310 30 -148 39 -176 73 -213 45 -50 78
-61 176 -61 107 0 160 22 200 83 26 38 29 55 206 886 23 104 43 193 45 197 3
5 12 8 20 8 12 0 14 -85 16 -587 l3 -588 145 0 145 0 0 671 0 670 -27 41 c-43
65 -117 95 -248 101 -120 5 -206 -9 -246 -40 -55 -44 -91 -159 -129 -423 -51
-347 -105 -666 -115 -685 -18 -31 -34 51 -130 646 -62 383 -80 432 -173 481
-43 22 -242 29 -310 9z"/>
<path d="M15312 3328 l3 -133 187 -3 188 -2 2 -608 3 -607 145 0 145 0 5 605
5 605 185 5 185 5 3 133 3 132 -531 0 -531 0 3 -132z"/>
<path d="M16680 3444 c-61 -22 -105 -56 -135 -108 -54 -93 -55 -99 -55 -657 0
-577 -3 -554 71 -634 70 -76 68 -76 539 -73 l415 3 3 133 3 132 -361 0 -360 0
-5 23 c-3 12 -4 87 -3 167 l3 145 335 5 335 5 3 138 3 137 -329 0 c-242 0
-331 3 -340 12 -14 14 -17 285 -4 305 6 10 94 13 363 15 l354 3 3 133 3 132
-398 0 c-333 -1 -405 -3 -443 -16z"/>
<path d="M18016 3449 c-67 -16 -159 -71 -217 -131 -112 -115 -119 -149 -119
-603 0 -411 2 -425 76 -537 55 -82 100 -123 179 -159 90 -42 169 -50 480 -47
l280 3 3 133 3 132 -291 0 c-316 0 -331 2 -382 56 -15 16 -32 42 -37 57 -14
36 -14 616 -1 675 13 54 52 116 87 139 24 16 62 19 323 23 l295 5 0 130 0 130
-320 2 c-176 0 -337 -3 -359 -8z"/>
<path d="M18872 2718 l3 -743 145 0 145 0 3 303 2 302 265 0 265 0 2 -302 3
-303 145 0 145 0 3 743 2 742 -150 0 -150 0 0 -299 c0 -263 -2 -300 -16 -305
-23 -9 -487 -7 -501 2 -10 6 -13 82 -15 302 l-3 295 -148 3 -147 3 2 -743z"/>
<path d="M10 3363 c0 -3 31 -63 69 -132 38 -69 123 -233 191 -363 l122 -238
41 6 c23 3 56 7 72 9 103 15 302 39 590 70 182 19 413 44 515 56 239 26 421
46 595 64 282 29 343 35 480 51 77 9 158 19 180 23 l40 7 -40 8 c-211 42
-1551 265 -1930 322 -359 53 -878 124 -910 124 -8 0 -15 -3 -15 -7z"/>
<path d="M3580 2724 c-322 -49 -690 -94 -1035 -129 -137 -14 -293 -29 -345
-35 -205 -21 -391 -41 -523 -54 -76 -8 -140 -16 -143 -19 -17 -16 62 -518 80
-512 84 26 323 101 361 112 596 183 1232 411 1690 607 147 63 143 64 -85 30z"/>
<path d="M3750 2394 c-229 -174 -595 -420 -906 -609 -119 -72 -466 -264 -664
-367 -69 -36 -166 -87 -217 -113 l-92 -48 49 -78 c50 -81 157 -226 181 -246
26 -21 492 319 823 602 359 306 565 502 754 715 37 41 107 119 155 173 49 53
88 97 86 97 -2 0 -78 -57 -169 -126z"/>
<path d="M2750 2079 c-129 -44 -365 -118 -525 -165 -159 -47 -371 -110 -470
-139 -99 -30 -236 -70 -305 -90 -69 -20 -231 -67 -360 -104 -129 -38 -291 -85
-360 -105 -301 -86 -480 -141 -480 -146 0 -3 31 -25 68 -50 36 -25 153 -107
259 -183 106 -75 197 -137 202 -137 19 0 717 342 1016 498 358 186 796 437
1036 594 37 24 91 57 120 75 30 18 50 32 44 32 -5 -1 -116 -37 -245 -80z"/>
<path d="M3365 1640 c-6 -10 -311 -265 -389 -325 -21 -17 -77 -60 -125 -98
-293 -230 -639 -458 -1037 -685 -125 -71 -508 -264 -679 -343 -228 -104 -214
-96 -185 -103 14 -3 79 -12 145 -21 66 -9 202 -27 303 -41 l182 -25 38 22 c65
40 313 205 414 276 413 291 811 672 1158 1109 14 17 59 73 101 125 79 99 93
119 85 119 -3 0 -8 -5 -11 -10z"/>
</g>
</svg>
