<svg xmlns="http://www.w3.org/2000/svg" viewBox="0 0 144 143" width="144" height="143" preserveAspectRatio="xMidYMid meet" style="width: 100%; height: 100%;">
<style> path { fill: #1e4356; } </style>
<g transform="matrix(1,0,0,1,23.75,6)" opacity="1" id="svg_2" style="display: block;"><g opacity="1" transform="matrix(1,0,0,1,58.966,57.534)"><path fill="rgb(0,0,0)" fill-opacity="1" d=" M-58.9640007019043,57.53499984741211 C-58.9640007019043,57.53499984741211 -41.808998107910156,47.1870002746582 -41.808998107910156,47.1870002746582 C-41.808998107910156,47.1870002746582 -46.82899856567383,46.99300003051758 -46.82899856567383,46.99300003051758 C-46.82899856567383,46.99300003051758 -56.255001068115234,52.678001403808594 -56.255001068115234,52.678001403808594 C-56.255001068115234,52.678001403808594 -56.24700164794922,-53.37799835205078 -56.24700164794922,-53.37799835205078 C-56.24700164794922,-53.37799835205078 52.84199905395508,-12.857000350952148 52.84199905395508,-12.857000350952148 C52.84199905395508,-12.857000350952148 33.01300048828125,-0.9190000295639038 33.01300048828125,-0.9190000295639038 C33.01300048828125,-0.9190000295639038 38.6349983215332,-0.9190000295639038 38.6349983215332,-0.9190000295639038 C38.6349983215332,-0.9190000295639038 58.965999603271484,-13.144000053405762 58.965999603271484,-13.144000053405762 C58.965999603271484,-13.144000053405762 -58.965999603271484,-57.53499984741211 -58.965999603271484,-57.53499984741211 C-58.965999603271484,-57.53499984741211 -58.9640007019043,57.53499984741211 -58.9640007019043,57.53499984741211z"></path></g><g opacity="1" transform="matrix(1,0,0,1,18.108,70.726)"><path fill="rgb(0,0,0)" fill-opacity="1" d=" M-3.062000036239624,-11.895999908447266 C-3.062000036239624,-11.895999908447266 3.062000036239624,-11.895999908447266 3.062000036239624,-11.895999908447266 C3.062000036239624,-11.895999908447266 3.062000036239624,11.895999908447266 3.062000036239624,11.895999908447266 C3.062000036239624,11.895999908447266 -3.062000036239624,11.895999908447266 -3.062000036239624,11.895999908447266 C-3.062000036239624,11.895999908447266 -3.062000036239624,-11.895999908447266 -3.062000036239624,-11.895999908447266z"></path></g><g opacity="1" transform="matrix(1,0,0,1,35.113,66.742)"><path fill="rgb(0,0,0)" fill-opacity="1" d=" M0.2070000022649765,10.291999816894531 C2.005000114440918,10.291999816894531 3.4030001163482666,9.699999809265137 4.4019999504089355,8.520000457763672 C5.413000106811523,7.326000213623047 5.918000221252441,5.815000057220459 5.918000221252441,3.990000009536743 C5.918000221252441,2.125999927520752 5.413000106811523,0.609000027179718 4.4019999504089355,-0.5590000152587891 C3.3910000324249268,-1.7280000448226929 1.9919999837875366,-2.312000036239624 0.2070000022649765,-2.312000036239624 C-1.61899995803833,-2.312000036239624 -3.0759999752044678,-1.7209999561309814 -4.165999889373779,-0.5400000214576721 C-5.239999771118164,0.6290000081062317 -5.78000020980835,2.1459999084472656 -5.78000020980835,4.008999824523926 C-5.78000020980835,5.8470001220703125 -5.239999771118164,7.35099983215332 -4.165999889373779,8.520000457763672 C-3.0759999752044678,9.699999809265137 -1.61899995803833,10.291999816894531 0.2070000022649765,10.291999816894531z M5.876999855041504,-15.880000114440918 C5.876999855041504,-15.880000114440918 11.944000244140625,-15.880000114440918 11.944000244140625,-15.880000114440918 C11.944000244140625,-15.880000114440918 11.944000244140625,15.880000114440918 11.944000244140625,15.880000114440918 C11.944000244140625,15.880000114440918 5.859000205993652,15.880000114440918 5.859000205993652,15.880000114440918 C5.859000205993652,15.880000114440918 5.859000205993652,12.597000122070312 5.859000205993652,12.597000122070312 C4.150000095367432,14.77400016784668 1.6119999885559082,15.86400032043457 -1.7630000114440918,15.86400032043457 C-4.770999908447266,15.86400032043457 -7.2179999351501465,14.767999649047852 -9.109000205993652,12.576000213623047 C-10.996999740600586,10.395999908447266 -11.944000244140625,7.5289998054504395 -11.944000244140625,3.9700000286102295 C-11.944000244140625,0.4129999876022339 -10.996999740600586,-2.4549999237060547 -9.109000205993652,-4.636000156402588 C-7.2179999351501465,-6.815999984741211 -4.763999938964844,-7.9039998054504395 -1.7430000305175781,-7.9039998054504395 C1.628999948501587,-7.9039998054504395 4.171000003814697,-6.815999984741211 5.876999855041504,-4.636000156402588 C5.876999855041504,-4.636000156402588 5.876999855041504,-15.880000114440918 5.876999855041504,-15.880000114440918z"></path></g><g opacity="1" transform="matrix(1,0,0,1,60.954,70.752)"><path fill="rgb(0,0,0)" fill-opacity="1" d=" M0.017999999225139618,-6.578999996185303 C-1.6480000019073486,-6.578999996185303 -2.9730000495910645,-6.079999923706055 -3.9600000381469727,-5.080999851226807 C-4.929999828338623,-4.083000183105469 -5.447999954223633,-2.9010000228881836 -5.513999938964844,-1.5360000133514404 C-5.513999938964844,-1.5360000133514404 5.375999927520752,-1.5360000133514404 5.375999927520752,-1.5360000133514404 C5.35099983215332,-2.9010000228881836 4.870999813079834,-4.083000183105469 3.938999891281128,-5.080999851226807 C2.992000102996826,-6.079999923706055 1.687000036239624,-6.578999996185303 0.017999999225139618,-6.578999996185303z M1.1410000324249268,11.854999542236328 C1.1410000324249268,11.854999542236328 1.062000036239624,11.895000457763672 1.062000036239624,11.895000457763672 C-2.927999973297119,11.895000457763672 -6.052999973297119,10.824000358581543 -8.312000274658203,8.684000015258789 C-10.583000183105469,6.531000137329102 -11.717000007629395,3.63700008392334 -11.717000007629395,-0.0010000000474974513 C-11.717000007629395,-1.9040000438690186 -11.369999885559082,-3.6419999599456787 -10.67300033569336,-5.218999862670898 C-9.977999687194824,-6.7789998054504395 -9.059000015258789,-8.03600025177002 -7.916999816894531,-8.979999542236328 C-6.76200008392334,-9.939000129699707 -5.506999969482422,-10.659000396728516 -4.1539998054504395,-11.145999908447266 C-2.7760000228881836,-11.645000457763672 -1.378000020980835,-11.895000457763672 0.03999999910593033,-11.895000457763672 C3.5190000534057617,-11.895000457763672 6.331999778747559,-10.812000274658203 8.48799991607666,-8.645999908447266 C10.638999938964844,-6.4670000076293945 11.717000007629395,-3.4200000762939453 11.717000007629395,0.492000013589859 C11.717000007629395,1.2400000095367432 11.678000450134277,1.9110000133514404 11.600000381469727,2.500999927520752 C11.600000381469727,2.500999927520752 -5.47599983215332,2.500999927520752 -5.47599983215332,2.500999927520752 C-5.146999835968018,3.7079999446868896 -4.39900016784668,4.732999801635742 -3.2320001125335693,5.572000026702881 C-2.0759999752044678,6.4120001792907715 -0.5180000066757202,6.833000183105469 1.437999963760376,6.833000183105469 C2.4619998931884766,6.833000183105469 3.4519999027252197,6.656000137329102 4.410999774932861,6.301000118255615 C5.36899995803833,5.946000099182129 6.059000015258789,5.611999988555908 6.480000019073486,5.298999786376953 C6.480000019073486,5.298999786376953 7.127999782562256,4.765999794006348 7.127999782562256,4.765999794006348 C7.127999782562256,4.765999794006348 10.39799976348877,7.877999782562256 10.39799976348877,7.877999782562256 C10.319000244140625,7.968999862670898 10.201000213623047,8.107000350952148 10.041999816894531,8.289999961853027 C9.925000190734863,8.420999526977539 9.557000160217285,8.743000030517578 8.939000129699707,9.255000114440918 C8.375,9.729000091552734 7.764999866485596,10.140999794006348 7.109000205993652,10.494999885559082 C6.452000141143799,10.848999977111816 5.584000110626221,11.164999961853027 4.507999897003174,11.440999984741211 C3.434000015258789,11.717000007629395 2.309999942779541,11.854999542236328 1.1410000324249268,11.854999542236328z"></path></g><g opacity="1" transform="matrix(1,0,0,1,85.582,70.73)"><path fill="rgb(0,0,0)" fill-opacity="1" d=" M-0.4339999854564667,7.447000026702881 C-0.4339999854564667,7.447000026702881 -0.45500001311302185,7.4679999351501465 -0.45500001311302185,7.4679999351501465 C0.9919999837875366,7.4679999351501465 2.2119998931884766,7.118000030517578 3.2100000381469727,6.421999931335449 C4.196000099182129,5.738999843597412 4.685999870300293,4.742000102996826 4.685999870300293,3.430000066757202 C4.685999870300293,3.430000066757202 4.685999870300293,1.9110000133514404 4.685999870300293,1.9110000133514404 C3.242000102996826,1.3990000486373901 1.7079999446868896,1.1449999809265137 0.07900000363588333,1.1449999809265137 C-1.2879999876022339,1.1449999809265137 -2.428999900817871,1.4220000505447388 -3.3459999561309814,1.9709999561309814 C-4.265999794006348,2.5239999294281006 -4.724999904632568,3.2909998893737793 -4.724999904632568,4.275000095367432 C-4.724999904632568,5.248000144958496 -4.318999767303467,6.021999835968018 -3.50600004196167,6.60099983215332 C-2.7049999237060547,7.164999961853027 -1.680999994277954,7.447000026702881 -0.4339999854564667,7.447000026702881z M4.885000228881836,11.892000198364258 C4.885000228881836,11.892000198364258 4.843999862670898,8.824999809265137 4.843999862670898,8.824999809265137 C3.3989999294281006,10.847000122070312 1.0570000410079956,11.85099983215332 -2.186000108718872,11.83899974822998 C-4.813000202178955,11.83899974822998 -6.9070000648498535,11.220999717712402 -8.465999603271484,9.986000061035156 C-10.043000221252441,8.741000175476074 -10.831000328063965,6.979000091552734 -10.831000328063965,4.710999965667725 C-10.831000328063965,2.3980000019073486 -9.899999618530273,0.5920000076293945 -8.03600025177002,-0.7070000171661377 C-6.171000003814697,-2.006999969482422 -3.984999895095825,-2.6570000648498535 -1.4759999513626099,-2.6570000648498535 C0.5830000042915344,-2.6570000648498535 2.632999897003174,-2.36299991607666 4.666999816894531,-1.7710000276565552 C4.747000217437744,-5.078999996185303 3.0399999618530273,-6.734000205993652 -0.45500001311302185,-6.734000205993652 C-1.843999981880188,-6.734000205993652 -3.2690000534057617,-6.557000160217285 -4.724999904632568,-6.201000213623047 C-6.183000087738037,-5.8470001220703125 -7.326000213623047,-5.4730000495910645 -8.152999877929688,-5.078999996185303 C-8.152999877929688,-5.078999996185303 -9.649999618530273,-9.548999786376953 -9.649999618530273,-9.548999786376953 C-6.38100004196167,-11.111000061035156 -3.0209999084472656,-11.890999794006348 0.4339999854564667,-11.890999794006348 C3.9760000705718994,-11.890999794006348 6.5960001945495605,-11.024999618530273 8.289999961853027,-9.291999816894531 C9.984999656677246,-7.559999942779541 10.831000328063965,-4.926000118255615 10.831000328063965,-1.3960000276565552 C10.831000328063965,-1.3960000276565552 10.831000328063965,11.892000198364258 10.831000328063965,11.892000198364258 C10.831000328063965,11.892000198364258 4.885000228881836,11.892000198364258 4.885000228881836,11.892000198364258z"></path></g><g opacity="1" transform="matrix(1,0,0,1,108.28,70.821)"><path fill="rgb(0,0,0)" fill-opacity="1" d=" M0.5220000147819519,11.942999839782715 C0.5220000147819519,11.942999839782715 0.6389999985694885,11.92300033569336 0.6389999985694885,11.92300033569336 C-3.430999994277954,11.92300033569336 -6.870999813079834,10.899999618530273 -9.678999900817871,8.85200023651123 C-9.678999900817871,8.85200023651123 -7.473999977111816,4.854000091552734 -7.473999977111816,4.854000091552734 C-6.474999904632568,5.510000228881836 -5.2210001945495605,6.068999767303467 -3.7109999656677246,6.5289998054504395 C-2.255000114440918,6.9730000495910645 -0.8970000147819519,7.197000026702881 0.3630000054836273,7.197000026702881 C2.752000093460083,7.197000026702881 3.947000026702881,6.5279998779296875 3.947000026702881,5.188000202178955 C3.947000026702881,4.5329999923706055 3.611999988555908,3.996000051498413 2.943000078201294,3.5739998817443848 C2.259999990463257,3.1540000438690186 1.4329999685287476,2.865000009536743 0.460999995470047,2.7079999446868896 C-0.4300000071525574,2.562000036239624 -1.5010000467300415,2.3329999446868896 -2.747999906539917,2.0179998874664307 C-3.9019999504089355,1.715000033378601 -4.986999988555908,1.3619999885559082 -5.998000144958496,0.9549999833106995 C-7.006999969482422,0.546999990940094 -7.835000038146973,-0.1420000046491623 -8.479000091552734,-1.1130000352859497 C-9.135000228881836,-2.0840001106262207 -9.461999893188477,-3.2790000438690186 -9.461999893188477,-4.697999954223633 C-9.461999893188477,-7.008999824523926 -8.597999572753906,-8.793999671936035 -6.863999843597412,-10.053000450134277 C-5.130000114440918,-11.314000129699707 -2.944999933242798,-11.944000244140625 -0.3070000112056732,-11.944000244140625 C3.1600000858306885,-11.944000244140625 6.099999904632568,-11.137999534606934 8.515999794006348,-9.52299976348877 C8.515999794006348,-9.52299976348877 6.585999965667725,-5.4079999923706055 6.585999965667725,-5.4079999923706055 C4.4070000648498535,-6.640999794006348 2.1419999599456787,-7.25600004196167 -0.2070000022649765,-7.25600004196167 C-2.440000057220459,-7.25600004196167 -3.555000066757202,-6.574999809265137 -3.555000066757202,-5.209000110626221 C-3.555000066757202,-4.474999904632568 -3.1019999980926514,-3.921999931335449 -2.197999954223633,-3.555000066757202 C-1.2899999618530273,-3.187999963760376 -0.18799999356269836,-2.8919999599456787 1.1119999885559082,-2.6689999103546143 C2.4130001068115234,-2.444999933242798 3.7119998931884766,-2.1510000228881836 5.01200008392334,-1.7829999923706055 C6.309999942779541,-1.4149999618530273 7.413000106811523,-0.6869999766349792 8.319999694824219,0.40400001406669617 C9.22599983215332,1.49399995803833 9.678999900817871,2.9110000133514404 9.678999900817871,4.6579999923706055 C9.678999900817871,6.954999923706055 8.85200023651123,8.748000144958496 7.197000026702881,10.032999992370605 C5.556000232696533,11.307000160217285 3.3299999237060547,11.942999839782715 0.5220000147819519,11.942999839782715z"></path></g><g opacity="1" transform="matrix(1,0,0,1,25.563,102.666)"><path fill="rgb(0,0,0)" fill-opacity="1" d=" M10.418000221252441,9.463000297546387 C10.418000221252441,9.463000297546387 10.357999801635742,14.996999740600586 10.357999801635742,14.996999740600586 C10.357999801635742,14.996999740600586 -10.357999801635742,14.996999740600586 -10.357999801635742,14.996999740600586 C-10.357999801635742,14.996999740600586 -10.357999801635742,9.954000473022461 -10.357999801635742,9.954000473022461 C-10.357999801635742,9.954000473022461 0.27399998903274536,0.8370000123977661 0.27399998903274536,0.8370000123977661 C1.8519999980926514,-0.503000020980835 2.9030001163482666,-1.5980000495910645 3.4260001182556152,-2.4509999752044678 C3.938999891281128,-3.2790000438690186 4.195000171661377,-4.236999988555908 4.195000171661377,-5.327000141143799 C4.195000171661377,-6.61299991607666 3.813999891281128,-7.5929999351501465 3.052999973297119,-8.26099967956543 C2.2909998893737793,-8.930999755859375 1.3200000524520874,-9.265999794006348 0.1379999965429306,-9.265999794006348 C-1.031000018119812,-9.265999794006348 -2.0160000324249268,-8.85099983215332 -2.815000057220459,-8.026000022888184 C-3.615999937057495,-7.198999881744385 -4.188000202178955,-6.0970001220703125 -4.5279998779296875,-4.7170000076293945 C-4.922999858856201,-4.809000015258789 -6.985000133514404,-5.359000205993652 -10.713000297546387,-6.370999813079834 C-10.13599967956543,-8.810999870300293 -8.854999542236328,-10.859999656677246 -6.873000144958496,-12.515000343322754 C-4.890999794006348,-14.168000221252441 -2.5859999656677246,-14.996999740600586 0.03999999910593033,-14.996999740600586 C3.2300000190734863,-14.996999740600586 5.802000045776367,-14.083999633789062 7.758999824523926,-12.260000228881836 C9.729000091552734,-10.420999526977539 10.713000297546387,-8.177000045776367 10.713000297546387,-5.52400016784668 C10.713000297546387,-3.5160000324249268 10.22700023651123,-1.7170000076293945 9.255999565124512,-0.12700000405311584 C8.29699993133545,1.434999942779541 6.525000095367432,3.193000078201294 3.938999891281128,5.150000095367432 C3.938999891281128,5.150000095367432 -1.1030000448226929,9.463000297546387 -1.1030000448226929,9.463000297546387 C-1.1030000448226929,9.463000297546387 10.418000221252441,9.463000297546387 10.418000221252441,9.463000297546387z"></path></g><g opacity="1" transform="matrix(1,0,0,1,41.485,102.902)"><path fill="rgb(0,0,0)" fill-opacity="1" d=" M3.180000066757202,14.760000228881836 C3.180000066757202,14.760000228881836 -3.180000066757202,14.760000228881836 -3.180000066757202,14.760000228881836 C-3.180000066757202,14.760000228881836 -3.180000066757202,-14.760000228881836 -3.180000066757202,-14.760000228881836 C-3.180000066757202,-14.760000228881836 3.180000066757202,-14.760000228881836 3.180000066757202,-14.760000228881836 C3.180000066757202,-14.760000228881836 3.180000066757202,14.760000228881836 3.180000066757202,14.760000228881836z"></path></g><g opacity="1" transform="matrix(1,0,0,1,58.465,102.903)"><path fill="rgb(0,0,0)" fill-opacity="1" d=" M11.529999732971191,-9.246000289916992 C11.529999732971191,-9.246000289916992 3.2190001010894775,-9.246000289916992 3.2190001010894775,-9.246000289916992 C3.2190001010894775,-9.246000289916992 3.2190001010894775,14.76099967956543 3.2190001010894775,14.76099967956543 C3.2190001010894775,14.76099967956543 -3.180000066757202,14.76099967956543 -3.180000066757202,14.76099967956543 C-3.180000066757202,14.76099967956543 -3.180000066757202,-9.246000289916992 -3.180000066757202,-9.246000289916992 C-3.180000066757202,-9.246000289916992 -11.529999732971191,-9.246000289916992 -11.529999732971191,-9.246000289916992 C-11.529999732971191,-9.246000289916992 -11.529999732971191,-14.760000228881836 -11.529999732971191,-14.760000228881836 C-11.529999732971191,-14.760000228881836 11.529999732971191,-14.760000228881836 11.529999732971191,-14.760000228881836 C11.529999732971191,-14.760000228881836 11.529999732971191,-9.246000289916992 11.529999732971191,-9.246000289916992z"></path></g><g opacity="1" transform="matrix(1,0,0,1,18.107,53.205)"><path fill="rgb(0,0,0)" fill-opacity="1" d=" M3.6540000438690186,0.0010000000474974513 C3.6540000438690186,2.0190000534057617 2.0169999599456787,3.6540000438690186 -0.0010000000474974513,3.6540000438690186 C-2.0169999599456787,3.6540000438690186 -3.6540000438690186,2.0190000534057617 -3.6540000438690186,0.0010000000474974513 C-3.6540000438690186,-2.0169999599456787 -2.0169999599456787,-3.6540000438690186 -0.0010000000474974513,-3.6540000438690186 C2.0169999599456787,-3.6540000438690186 3.6540000438690186,-2.0169999599456787 3.6540000438690186,0.0010000000474974513z"></path></g></g></svg>
