<svg xmlns="http://www.w3.org/2000/svg" viewBox="0 0 169.3 41.03"><defs></defs><title>Pramati-Logo-White</title><style> path { fill: #1e4356; } </style> <path class="a" d="M56.46,23.61c3.42,0,6,1.65,6,4.61s-2.83,5-5.81,5a4.28,4.28,0,0,1-1.92-.38c2.27-.13,4.71-1.53,4.71-4.07,0-2.33-1.63-3.25-3.73-3.25a10.19,10.19,0,0,0-1.85.16V37.59c0,1.48,0,2.54,1.37,3.33V41H50v-.08c1.35-.47,1.19-2.44,1.19-3.62v-10c0-1.2.16-3.12-1.16-3.65V23.6Z" transform="translate(-2 -4.08)"/><path class="a" d="M72.57,23.61c3.56,0,5.48,1.85,5.48,4.27s-2,4.15-4.2,4.65l3.81,4.79A18.32,18.32,0,0,0,81.94,41H79.51a3.44,3.44,0,0,1-3.06-1.32l-3.24-4L70.77,32c2.12-.32,4.6-1.3,4.6-3.79a3,3,0,0,0-3.43-2.93,15.9,15.9,0,0,0-1.81.2V37.3c0,1.22-.16,3.15,1.2,3.62V41h-5v-.08c1.35-.47,1.16-2.44,1.16-3.62v-10c0-1.22.19-3.15-1.16-3.65V23.6Z" transform="translate(-2 -4.08)"/><path class="a" d="M93.91,32.5H88.7l2.62-6.67Zm.77,2,1.43,3.74c.71,1.85.92,2.13-.37,2.72V41h5.42v-.08c-1.51-.77-2-2.25-2.59-3.76L93.06,23.58H88.89v.08c1.27.4.76,1.51.39,2.46l-4.42,11c-.57,1.51-1,3-2.56,3.76V41h4.86v-.08c-1.26-.48-1.07-1.24-.53-2.72L88,34.45Z" transform="translate(-2 -4.08)"/><path class="a" d="M120.44,25.26a4.43,4.43,0,0,0,.4-1.64v0h4.58v.08c-.64.18-.82.95-.82,1.56l1.74,13a3.13,3.13,0,0,0,1.35,2.7V41h-5.1v-.08c.92-.29,1.08-1.08,1.08-2l-1.51-12.75-5.92,15.15a6.39,6.39,0,0,1-2.33-3.19l-5-11.94-1.51,11.38c-.21,1.61-.4,2.77.85,3.33V41H103.9v-.08c1.11-1,1.27-2.27,1.48-3.71l1.51-11.08c.11-.73.4-1.79-.82-2.45V23.6h4.64v0a3.07,3.07,0,0,0,.37,1.19l5,11.67Z" transform="translate(-2 -4.08)"/><path class="a" d="M142.06,32.5h-5.21l2.61-6.67Zm.77,2,1.42,3.74c.72,1.85.93,2.13-.37,2.72V41h5.43v-.08c-1.51-.77-2-2.25-2.59-3.76l-5.51-13.57H137v.08c1.26.4.76,1.51.4,2.46l-4.43,11c-.58,1.51-1,3-2.57,3.76V41h4.87v-.08c-1.27-.48-1.08-1.24-.53-2.72l1.38-3.74Z" transform="translate(-2 -4.08)"/><path class="a" d="M157.76,37.56c0,1.51,0,2.54,1.38,3.36V41h-5.23v-.08c1.33-.5,1.17-2.44,1.17-3.62V25.5h-2.33a4.54,4.54,0,0,0-3.14,1.06h-.09l.93-3.16h.08a4.77,4.77,0,0,0,1,.21h10.51a2.66,2.66,0,0,0,1.22-.21h.08l-.85,3.16h-.08c-.35-.93-1.4-1.06-2.27-1.06h-2.39Z" transform="translate(-2 -4.08)"/><path class="a" d="M167.45,27.33c0-1.22.18-3.15-1.16-3.65V23.6h5v.08c-1.32.5-1.17,2.45-1.17,3.65v10c0,1.18-.15,3.12,1.17,3.62V41h-5v-.08c1.32-.47,1.16-2.44,1.16-3.62Z" transform="translate(-2 -4.08)"/><polygon class="a" points="24.51 25.42 24.8 25.74 24.58 25.98 24.51 25.42"/><polygon class="a" points="24.59 24.55 25.18 24.5 25.66 24.38 25.58 25.03 25.32 25.35 25.28 24.92 24.77 24.97 24.51 24.77 24.59 24.55"/><path class="a" d="M27.64,27.46l-.78.19-.78,0-.26-.16H25l-.52.21L24,28l-.63,0-.71.23-.41,0v-.4l-1,.11-.14.54-.25.33-.21.64-.24.51-.32.48.16.39.48,0,.24.71.55-.14a2.56,2.56,0,0,0-.15.56,2,2,0,0,0,0,.61l.29.16.22-.06.25.06.3.28.19.57.26.15.23.25.72.23.4.27h.36l.1-.45-.47-.18.58-.1V33l-.08-.43.57.07.33-.24.18-.46.07-.54-.33-.23.41-.25.73-.11v-.39l-.44-.1-.7.07.15-.67.41-.17,0-.43L26,28.85h-.41l.41-.38.59-.09.67-.18.33.06.19-.53Zm-2.9,1.17.07.44-.4,0Zm-2.08,2.51-.21.24-.48.13-.29.29.14-.54.43-.13.44-.53Zm-1.05-.77.81-.1-.11.36-.47,0Zm1-.83-.48.17.22-.33.06-.45.45.15Zm.93,2.59-.12-.43L23,31.38l.84.24Zm0-3.5.29-.24.22.2Zm1.21,3.56-.4.39-.26-.2.14-.1.51-.53.36.14Zm.13-1.28-.55-.13.26-.2.65-.11Z" transform="translate(-2 -4.08)"/><polygon class="a" points="45.76 3.55 45.58 3.89 46.1 3.51 45.76 3.55"/><polygon class="a" points="20.17 22.43 20.62 22.35 20.74 22.75 21 22.69 21.15 22.41 21.64 22.56 21.98 22.45 22.25 22.22 22.92 22.35 22.96 22.61 23.26 22.64 23.56 22.27 23.9 22.16 24.27 22.23 25.32 22.28 25.66 22.39 26.07 22.4 26.33 22.18 26.71 22.02 27.11 22 27.56 22.13 27.48 22.53 27.17 23.02 26.78 23.47 26.53 23.36 26.98 22.77 27.22 22.41 26.51 22.51 26.16 23.04 25.5 23.01 25.3 23.36 24.93 23.35 24.79 22.93 24.41 23.07 23.93 23.07 23.59 22.92 23.82 23.29 23.07 23.39 22.99 23.01 22.66 22.89 22.47 23.21 21.99 23.55 21.87 23.38 21.43 23.54 21.02 23.92 20.67 23.5 20.38 23.57 20.18 23.22 19.69 23.3 20.17 22.43"/><polygon class="a" points="28.12 20.99 28.62 20.58 28.34 21.23 28.17 21.63 28.12 20.99"/><path class="a" d="M29.58,24.26l.65-.21L31,24l-.09-.49-.68.12-.5.11-.38.32L29,24l-.27.22-.42.24-.12-.24.21-.4.27-.19.23-.1.44.11,0-.3-.27-.11-.1-.3-.45-.1V23l-.43.36-.53,0-.07-.34-.19-.25-.23.22-.2.36-.26-.07.05-.39-.31.14-.35,0-.19-.25-.65-.1-.38.49-.81.52-.19.8-.57.25-.19.4-.64.34v.36l.39.11.53.19.3.33,0-.35.64-.17.57-.25.14.47h.64l.12-.54.68-.08,0,.34.48.15.3-.32.09-.56.41.06,0,.47-.27.31,0,.3.38,0L28.3,26l0-.35,0-.47.37-.1.25.58.6-.09,0-.2-.4-.19-.07-.34.28-.27Zm-6.13,1.6-.15-.08.22-.36Zm.83-1.1-.35,0,.16-.41.38-.27Zm2,0-.61-.18H25l.08-.44.57-.33.16.21.45.15.26.16.3.19Zm.83-.3.2-.31.3.07.11.34Z" transform="translate(-2 -4.08)"/><polygon class="a" points="29.02 18.95 29.57 18.5 29.54 19.13 29.28 19.11 29.02 18.95"/><polygon class="a" points="26.33 17.55 26.79 17.36 26.75 17.62 27.24 17.81 27.65 18.18 28.3 18.07 28.63 17.54 29.05 17.52 29.58 17.49 29.8 17.61 30.41 17.66 31.04 17.3 30.98 17.59 30.63 17.86 29.86 17.98 29.25 18.06 28.79 18.08 28.71 18.25 28.97 18.36 28.85 18.58 28.32 18.61 27.87 18.42 27.15 18.37 26.65 18.35 26.42 18.53 26.18 18.84 25.84 18.9 26.11 18.41 26.05 17.91 25.58 18.23 26.33 17.55"/><path class="a" d="M33.71,20.35l-.3-.07-.27.06-.54.11-.39-.07L32,20.17l-.34,0-.33-.32-.5-.07-.1-.33-.16.12-.07.56-.38-.08L30,20.3h-.23l-.78.2-.35,0-.34-.11-.5-.12-.55.19-.28.4-.35.31-.36.66-.43.24-.12.52.5,0,.46-.1.58-.07L27.4,22l.66-.28.23-.31.14-.43.34-.14.5.32-.28.31.42.07.38-.11.57,0,.35.07.35-.23.21-.3.1.33.69-.2.25-.22.3.11.33.12.25-.31.54-.15.44-.22Zm-6.88,1.39-.35.06.16-.22.31-.15Zm.81-.42-.1-.29.19-.23Zm3.22-.68.12-.3.11.29Z" transform="translate(-2 -4.08)"/><path class="a" d="M34.69,19.28,34.45,19l-.37.41-.26.21-.28-.14.07-.25.33-.24h.3l.46-.09.2-.2v-.2l-.36.1-.32-.16.2-.24.49,0,0-.32-.6.12-.37.28,0,.36h-.34l-.06-.36-.26.09-.17.09-.34-.22H31.65l-.16-.15-.07-.23-.11-.36-.2-.33-.48,0-.29.34-.35.26-.34.21-.1.25-.32.27-.39.15-.29.53-.42.17-.22.24-.07.39.38.27h.36l.2-.42.43-.27.07.18-.15.23-.29.1v.33l.6.05.18-.33.31-.11,0-.38.36-.15.08-.8.39.15.09.2.13.29.35.24.16.15.7,0,.29,0,.22.16v.22l.13.2.23-.35h.21l.4.19.13.34,1.25-1.08Zm-4.93.09-.23-.08-.1-.21.14-.12.19.22.25.2Zm.92-1.6-.16-.1.22-.15Zm.55.94-.08-.18.14-.12.07.23Zm1.26.2v-.13l.13-.14.09.22Z" transform="translate(-2 -4.08)"/><polygon class="a" points="33.38 14.34 33.54 14.12 33.73 14.12 33.63 14.65 33.41 14.73 33.38 14.34"/><path class="a" d="M34.6,16.7l-.25.12-.06.33-.22.21-.35,0-.26-.55.38,0-.08-.29h-.49L33,16.17h.46l.35,0,.44,0,.42.33.24-.33,0-.44h-.31l-.43-.45-.31-.58-.34.12-.39.46-.68.22,0,.45-.72.06-.2.35-.32.34.05.5.32.24.45,0,.05.44.66-.05.07-.59.33,0,0,.6.4.25.53-.21.32-.17.05-.24.3,0,0,.25.31-.11,0-.51Zm-2,.22-.49,0-.19-.11.08-.2.52-.05.25.21Z" transform="translate(-2 -4.08)"/><polygon class="a" points="38.27 9.47 38.54 9.34 38.68 9.6 38.98 9.59 38.6 9.98 38.27 9.47"/><polygon class="a" points="36.59 10.5 37.17 10.14 37.19 9.71 36.9 9.89 36.74 10.19 36.41 10.11 36.59 10.5"/><polygon class="a" points="37.13 9.06 37.37 9.19 37.55 9.44 37.84 9.18 38.17 8.83 37.62 8.84 37.13 9.06"/><polygon class="a" points="38.34 8.11 37.89 8.37 38.03 8.58 38.35 8.4 38.34 8.11"/><polygon class="a" points="38.95 8.4 38.62 8.66 38.51 8.92 38.93 8.91 38.95 8.4"/><polygon class="a" points="40.4 7.33 40.74 7.32 41.04 7.03 40.78 7.75 40.48 7.71 40.4 7.33"/><polygon class="a" points="41.59 6.44 41.54 6.81 41.98 6.68 41.59 6.44"/><polygon class="a" points="42.12 5.72 41.99 6.06 42.33 6.06 42.12 5.72"/><polygon class="a" points="40.57 5.05 40.46 4.88 39.92 5.38 39.34 5.47 39.09 5.76 38.39 5.8 38.24 6.32 37.37 6.4 36.9 6.7 37.31 6.96 37.72 6.74 38.14 6.83 37.98 7.08 38.04 7.38 38.78 7.25 39.03 6.27 39.52 6.1 40.12 5.85 40.36 5.34 40.57 5.05"/><polygon class="a" points="41.51 5.47 41.51 4.88 41.96 4.76 41.94 4.55 42.47 4.51 42.59 4.89 41.99 5.14 41.85 5.51 41.56 5.77 41.34 6.06 40.75 5.97 40.59 6.19 40.15 6.32 40.08 6.82 39.82 7.16 40.03 7.54 39.86 7.88 39.58 8.14 39.3 7.93 38.9 7.72 39.05 7.21 39.49 7.03 39.71 6.36 39.97 6.02 40.45 5.93 40.62 5.68 41.51 5.47"/><polygon class="a" points="40.67 4.63 41.12 4.54 41.34 4.17 41.46 4.59 41.24 4.92 40.8 5.01 40.67 4.63"/><polygon class="a" points="42.66 5.3 42.56 5.05 42.8 4.93 42.96 4.73 43.42 4.81 43.34 5.05 43 5.05 42.66 5.3"/><polygon class="a" points="46.8 1.59 46.55 1.79 46.74 1.95 46.8 1.59"/><polygon class="a" points="45.49 2.26 45.36 2.51 44.94 2.71 44.73 3.16 44.72 3.49 45.12 3.45 45.24 3.74 44.78 3.9 44.41 4.02 44.38 4.27 43.81 4.27 42.94 4.26 42.72 4.01 43 3.6 43.96 3.32 44.35 2.78 44.8 2.46 45.49 2.26"/><polygon class="a" points="46.06 2.07 46.46 2.27 47.12 2.24 46.84 2.56 46.86 2.98 45.67 3.04 45.41 3.25 45.14 3.33 45.24 2.96 45.64 2.72 46.02 2.56 46.06 2.07"/><polygon class="a" points="47.02 2.08 47.95 1.12 49.06 0.85 49.95 0.39 50.37 0.71 49.94 0.87 49.48 1.22 48.48 1.37 47.82 2.05 47.32 2.13 47.02 2.08"/><polygon class="a" points="50.57 0.03 50.38 0.35 50.91 0 50.57 0.03"/><polygon class="a" points="43.49 3.01 43.26 3.26 43.73 3.09 43.49 3.01"/><polygon class="a" points="20.09 22 19.91 22.3 20.32 22.08 20.09 22"/><polygon class="a" points="33.43 13.98 33.17 14.02 33.03 13.89 33.48 13.58 33.68 13.68 33.43 13.98"/><polyline class="a" points="36.93 11.31 36.84 10.95 37.45 10.77 37.49 9.99 37.73 9.6 38.08 9.89 37.68 10.16 37.68 10.55 37.51 11.37 36.93 11.34"/><polygon class="a" points="31.94 11.31 31.14 11.47 31.58 11.65 31.94 11.31"/><polygon class="a" points="33.79 10.29 33.05 10.08 32.59 10.64 32.79 10.85 33.79 10.29"/><polygon class="a" points="34.32 9.91 33.83 9.28 33.81 10.45 34.08 10.36 34.32 9.91"/><polygon class="a" points="34.71 9.35 34.52 9.16 34.37 8.72 34.21 9.28 34.35 9.61 34.71 9.35"/><path class="a" d="M35.78,11.34a19.08,19.08,0,0,0-14-5.79,19.06,19.06,0,0,0-14,5.79A19,19,0,0,0,2,25.33a19,19,0,0,0,5.79,14,19,19,0,0,0,14,5.79,19,19,0,0,0,14-5.79,19.07,19.07,0,0,0,5.78-14A19.07,19.07,0,0,0,35.78,11.34Zm2.16,2.85.17.39h-.47l-.17-.39.28-.22Zm.1.8-.25.21H37.7l-.14,0,.09-.13Zm-.95.44,0,.61-.48-.6.29,0,.62-.63Zm.33,1.63-.38,0,.07-.34h.29Zm-1.73,0,.08-.28,1.13-.36-.52.69-.27.17-.13.58-.45-.69Zm-.62-.81.11-.56.49,0,0,.5Zm1,.11.35-.34.44.18Zm.22,1.87.22-.1v-.29l.36-.05,0,.31-.15.09-.13.35h-.31Zm.31-.65,0-.29.16-.22.23.19Zm-1.22-4.15.14.14-.57.19Zm-1.07.66,1.33-.28-.2-.65.72-.39.32-.14.11-.18.27.81,0,0-.19.62.77.07-.09.39-1.2.19,0,1-.48-.3-.08-.52-.5.21-.6.56-.29-.35.08-.58-.62-.12ZM32.94,36.5a15.21,15.21,0,0,1-11.16,4.62A15.22,15.22,0,0,1,10.62,36.5,15.21,15.21,0,0,1,6,25.33a15.21,15.21,0,0,1,4.63-11.16A15.19,15.19,0,0,1,21.78,9.54a15.18,15.18,0,0,1,11.16,4.63,15.21,15.21,0,0,1,4.63,11.16A15.21,15.21,0,0,1,32.94,36.5Zm4.55-20.39.11-.31.43-.09.49-.36.09.39-.7.36Zm.5.55.21-.27.22.08Z" transform="translate(-2 -4.08)"/><path class="a" d="M39.61,12.1l.18-.67-.2-.1-1.19.45.27-.4-.74.08-.85,1.06.15,0,.38.68,1.27-.14.22-.47-.37-.16.07-.29Zm-1.91.51.18-.43.65.17Z" transform="translate(-2 -4.08)"/></svg>

